<?xml version="1.0" encoding="UTF-8"?>
<svg xmlns="http://www.w3.org/2000/svg" xmlns:xlink="http://www.w3.org/1999/xlink" width="600pt" height="599.999999pt" viewBox="0 0 600 599.999999" version="1.2">
<defs>
<clipPath id="clip1">
  <path d="M 293 138.304688 L 306 138.304688 L 306 196 L 293 196 Z M 293 138.304688 "/>
</clipPath>
<clipPath id="clip2">
  <path d="M 416 277 L 473.699219 277 L 473.699219 292 L 416 292 Z M 416 277 "/>
</clipPath>
<clipPath id="clip3">
  <path d="M 275 404 L 398 404 L 398 416.25 L 275 416.25 Z M 275 404 "/>
</clipPath>
<clipPath id="clip4">
  <path d="M 171 404 L 224 404 L 224 416.25 L 171 416.25 Z M 171 404 "/>
</clipPath>
</defs>
<g id="surface1">
<rect x="0" y="0" width="600" height="599.999999" style="fill:rgb(100%,100%,100%);fill-opacity:1;stroke:none;"/>
<rect x="0" y="0" width="600" height="599.999999" style="fill:rgb(100%,100%,100%);fill-opacity:1;stroke:none;"/>
<rect x="0" y="0" width="600" height="599.999999" style="fill:rgb(100%,100%,100%);fill-opacity:1;stroke:none;"/>
<path style=" stroke:none;fill-rule:nonzero;fill:rgb(11.369324%,10.5896%,9.799194%);fill-opacity:1;" d="M 408.339844 331.839844 C 405.171875 331.839844 402.609375 329.28125 402.609375 326.117188 C 402.609375 322.929688 402.460938 319.765625 402.171875 316.65625 C 401.878906 313.503906 404.207031 310.71875 407.355469 310.429688 C 410.441406 310.203125 413.289062 312.460938 413.585938 315.605469 C 413.902344 319.070312 414.070312 322.570312 414.070312 326.117188 C 414.070312 329.28125 411.507812 331.839844 408.339844 331.839844 "/>
<path style=" stroke:none;fill-rule:nonzero;fill:rgb(11.369324%,10.5896%,9.799194%);fill-opacity:1;" d="M 189.433594 331.839844 C 186.265625 331.839844 183.703125 329.28125 183.703125 326.117188 C 183.703125 262.667969 235.375 211.054688 298.886719 211.054688 C 358.875 211.054688 408.183594 256.003906 413.585938 315.617188 C 413.867188 318.757812 411.550781 321.542969 408.394531 321.832031 C 405.214844 321.96875 402.453125 319.800781 402.171875 316.644531 C 397.3125 262.972656 352.910156 222.503906 298.886719 222.503906 C 241.691406 222.503906 195.164062 268.988281 195.164062 326.117188 C 195.164062 329.28125 192.601562 331.839844 189.433594 331.839844 "/>
<path style=" stroke:none;fill-rule:nonzero;fill:rgb(11.369324%,10.5896%,9.799194%);fill-opacity:1;" d="M 465.480469 331.839844 L 133.886719 331.839844 C 130.71875 331.839844 128.152344 329.28125 128.152344 326.117188 C 128.152344 322.953125 130.71875 320.394531 133.886719 320.394531 L 465.480469 320.394531 C 468.648438 320.394531 471.214844 322.953125 471.214844 326.117188 C 471.214844 329.28125 468.648438 331.839844 465.480469 331.839844 "/>
<g clip-path="url(#clip1)" clip-rule="nonzero">
<path style=" stroke:none;fill-rule:nonzero;fill:rgb(11.369324%,10.5896%,9.799194%);fill-opacity:1;" d="M 299.679688 195.632812 C 296.558594 195.632812 294.007812 193.140625 293.949219 190.007812 L 293.15625 144.140625 C 293.097656 140.976562 295.617188 138.371094 298.785156 138.316406 C 302.191406 138.460938 304.558594 140.773438 304.617188 143.941406 L 305.414062 189.808594 C 305.46875 192.972656 302.949219 195.578125 299.78125 195.632812 C 299.75 195.632812 299.714844 195.632812 299.679688 195.632812 "/>
</g>
<path style=" stroke:none;fill-rule:nonzero;fill:rgb(11.369324%,10.5896%,9.799194%);fill-opacity:1;" d="M 205.949219 231.4375 C 204.515625 231.4375 203.078125 230.902344 201.972656 229.828125 L 168.945312 197.957031 C 166.664062 195.769531 166.605469 192.144531 168.800781 189.863281 C 171.003906 187.59375 174.640625 187.535156 176.902344 189.730469 L 209.929688 221.597656 C 212.207031 223.789062 212.269531 227.414062 210.074219 229.695312 C 208.949219 230.859375 207.449219 231.4375 205.949219 231.4375 "/>
<path style=" stroke:none;fill-rule:nonzero;fill:rgb(11.369324%,10.5896%,9.799194%);fill-opacity:1;" d="M 131.734375 292.167969 C 128.578125 292.167969 126.015625 289.621094 126.003906 286.453125 C 125.992188 283.300781 128.558594 280.730469 131.71875 280.71875 L 177.640625 280.59375 C 177.648438 280.59375 177.652344 280.59375 177.660156 280.59375 C 180.816406 280.59375 183.378906 283.144531 183.390625 286.308594 C 183.402344 289.460938 180.835938 292.035156 177.675781 292.046875 L 131.753906 292.167969 C 131.746094 292.167969 131.742188 292.167969 131.734375 292.167969 "/>
<path style=" stroke:none;fill-rule:nonzero;fill:rgb(11.369324%,10.5896%,9.799194%);fill-opacity:1;" d="M 391.929688 223.8125 C 390.496094 223.8125 389.0625 223.277344 387.941406 222.203125 C 385.671875 220.011719 385.605469 216.386719 387.808594 214.105469 L 419.710938 181.105469 C 421.90625 178.839844 425.535156 178.78125 427.816406 180.972656 C 430.089844 183.164062 430.15625 186.789062 427.949219 189.070312 L 396.046875 222.066406 C 394.929688 223.230469 393.429688 223.8125 391.929688 223.8125 "/>
<g clip-path="url(#clip2)" clip-rule="nonzero">
<path style=" stroke:none;fill-rule:nonzero;fill:rgb(11.369324%,10.5896%,9.799194%);fill-opacity:1;" d="M 421.875 291.195312 C 418.816406 291.195312 416.285156 288.789062 416.140625 285.714844 C 416.007812 282.5625 418.460938 279.890625 421.628906 279.742188 L 467.511719 277.730469 C 470.453125 277.550781 473.332031 280.054688 473.488281 283.210938 C 473.621094 286.363281 471.171875 289.035156 468.003906 289.183594 L 422.121094 291.195312 C 422.039062 291.195312 421.953125 291.195312 421.875 291.195312 "/>
</g>
<path style=" stroke:none;fill-rule:nonzero;fill:rgb(11.369324%,10.5896%,9.799194%);fill-opacity:1;" d="M 299.679688 370.96875 L 154.695312 370.96875 C 151.527344 370.96875 148.964844 368.40625 148.964844 365.242188 C 148.964844 362.078125 151.527344 359.519531 154.695312 359.519531 L 299.679688 359.519531 C 302.847656 359.519531 305.414062 362.078125 305.414062 365.242188 C 305.414062 368.40625 302.847656 370.96875 299.679688 370.96875 "/>
<path style=" stroke:none;fill-rule:nonzero;fill:rgb(11.369324%,10.5896%,9.799194%);fill-opacity:1;" d="M 428.253906 370.96875 L 367.035156 370.96875 C 363.863281 370.96875 361.300781 368.40625 361.300781 365.242188 C 361.300781 362.078125 363.863281 359.519531 367.035156 359.519531 L 428.253906 359.519531 C 431.421875 359.519531 433.984375 362.078125 433.984375 365.242188 C 433.984375 368.40625 431.421875 370.96875 428.253906 370.96875 "/>
<g clip-path="url(#clip3)" clip-rule="nonzero">
<path style=" stroke:none;fill-rule:nonzero;fill:rgb(11.369324%,10.5896%,9.799194%);fill-opacity:1;" d="M 391.929688 416.265625 L 280.882812 416.265625 C 277.714844 416.265625 275.148438 413.707031 275.148438 410.542969 C 275.148438 407.375 277.714844 404.816406 280.882812 404.816406 L 391.929688 404.816406 C 395.097656 404.816406 397.660156 407.375 397.660156 410.542969 C 397.660156 413.707031 395.097656 416.265625 391.929688 416.265625 "/>
</g>
<g clip-path="url(#clip4)" clip-rule="nonzero">
<path style=" stroke:none;fill-rule:nonzero;fill:rgb(11.369324%,10.5896%,9.799194%);fill-opacity:1;" d="M 218.152344 416.265625 L 177.660156 416.265625 C 174.492188 416.265625 171.925781 413.707031 171.925781 410.542969 C 171.925781 407.375 174.492188 404.816406 177.660156 404.816406 L 218.152344 404.816406 C 221.320312 404.816406 223.882812 407.375 223.882812 410.542969 C 223.882812 413.707031 221.320312 416.265625 218.152344 416.265625 "/>
</g>
</g>
</svg>
